<svg width="28" height="28" viewBox="0 0 28 28" fill="none" xmlns="http://www.w3.org/2000/svg">
<g id="Yes Grp">
<g id="Grp">
<rect id="Rectangle 5" width="28" height="28" rx="14" fill="#E68086"/>
</g>
<g id="Group 34">
<path id="Union" fill-rule="evenodd" clip-rule="evenodd" d="M19.5051 10.505C19.8364 10.1736 19.8364 9.63638 19.5051 9.305C19.1737 8.97363 18.6364 8.97363 18.3051 9.305L14.4129 13.1972L10.6078 9.39213C10.2764 9.06075 9.73917 9.06075 9.4078 9.39213C9.07643 9.7235 9.07643 10.2608 9.4078 10.5921L13.2129 14.3972L9.30504 18.305C8.97366 18.6364 8.97367 19.1737 9.30504 19.505C9.63641 19.8364 10.1737 19.8364 10.505 19.505L14.4129 15.5972L18.4078 19.5922C18.7392 19.9235 19.2765 19.9235 19.6078 19.5922C19.9392 19.2608 19.9392 18.7235 19.6078 18.3922L15.6129 14.3972L19.5051 10.505Z" fill="#F9F7F2"/>
</g>
</g>
</svg>
